<svg width="1000" height="1000" viewBox="0 0 1000 1000" fill="none" xmlns="http://www.w3.org/2000/svg">
  <defs>
    <style>
      .stroke { stroke: #20383b; stroke-width: 20; stroke-linecap: round; stroke-linejoin: round; }
      .panel { fill: #f7f3eb; fill-opacity: 0.94; stroke: #20383b; stroke-width: 20; stroke-linecap: round; stroke-linejoin: round; }
      .soft { fill: #e6ddd0; }
      .soft-stroke { stroke: #708489; stroke-width: 18; stroke-linecap: round; stroke-linejoin: round; }
      .accent-stroke { stroke: #b58a58; stroke-width: 20; stroke-linecap: round; stroke-linejoin: round; }
      .accent { fill: #b58a58; }
      .sage { fill: #72877d; }
    </style>
  </defs>
  <path d="M152 326C152 294 178 268 210 268H388C420 268 446 294 446 326V450C446 482 420 508 388 508H260L186 576V508H210C178 508 152 482 152 450V326Z" class="panel"/>
  <path d="M220 344H374" class="stroke"/>
  <path d="M220 402H340" class="soft-stroke"/>
  <path d="M506 386C544 346 602 346 640 386" class="accent-stroke"/>
  <path d="M562 340V292" class="soft-stroke"/>
  <path d="M480 430H666" class="soft-stroke"/>
  <path d="M492 466L550 410L528 470H602L544 556L564 492H492L526 452" class="accent-stroke"/>
  <rect x="676" y="210" width="152" height="324" rx="38" class="panel"/>
  <path d="M722 260H782" class="stroke"/>
  <circle cx="752" cy="380" r="46" class="soft"/>
  <path d="M752 352V384L776 404" class="stroke"/>
  <circle cx="284" cy="690" r="88" class="panel"/>
  <path d="M284 646V694L320 716" class="stroke"/>
  <path d="M286 604C334 604 374 644 374 692" class="soft-stroke"/>
  <path d="M580 654H782" class="stroke"/>
  <path d="M540 708H744" class="soft-stroke"/>
  <circle cx="544" cy="654" r="14" class="accent"/>
  <circle cx="506" cy="708" r="14" class="sage"/>
</svg>
